<svg width="64" height="65" viewBox="0 0 64 65" fill="none" xmlns="http://www.w3.org/2000/svg">
<g clip-path="url(#clip0_112_5948)">
<path d="M42.2694 38.6137C41.9019 38.6138 41.5426 38.5049 41.2369 38.3007C40.9313 38.0966 40.6931 37.8064 40.5523 37.4669C40.4116 37.1273 40.3747 36.7537 40.4464 36.3932C40.518 36.0327 40.6949 35.7015 40.9548 35.4416C41.2146 35.1816 41.5457 35.0046 41.9062 34.9328C42.2667 34.861 42.6403 34.8978 42.9799 35.0384C43.3195 35.1789 43.6098 35.4171 43.8141 35.7226C44.0183 36.0282 44.1274 36.3875 44.1274 36.755C44.1269 37.2477 43.931 37.72 43.5827 38.0685C43.2344 38.4169 42.7621 38.613 42.2694 38.6137ZM21.7306 38.6137C21.363 38.6138 21.0037 38.5049 20.6981 38.3007C20.3924 38.0966 20.1542 37.8064 20.0134 37.4669C19.8727 37.1273 19.8359 36.7537 19.9075 36.3932C19.9791 36.0327 20.1561 35.7015 20.4159 35.4416C20.6758 35.1816 21.0068 35.0046 21.3673 34.9328C21.7278 34.861 22.1014 34.8978 22.441 35.0384C22.7806 35.1789 23.0709 35.4171 23.2752 35.7226C23.4794 36.0282 23.5885 36.3875 23.5886 36.755C23.5881 37.2477 23.3922 37.7201 23.0439 38.0686C22.6956 38.417 22.2233 38.6131 21.7306 38.6137ZM42.9358 27.4205L46.6494 20.9886C46.7003 20.9008 46.7333 20.8037 46.7467 20.7031C46.7601 20.6024 46.7535 20.5001 46.7273 20.402C46.7012 20.3039 46.6559 20.2119 46.5941 20.1313C46.5324 20.0507 46.4554 19.9831 46.3675 19.9323C46.2796 19.8815 46.1825 19.8485 46.0819 19.8352C45.9812 19.8219 45.8789 19.8286 45.7808 19.8548C45.6827 19.8811 45.5908 19.9264 45.5102 19.9882C45.4297 20.0501 45.3621 20.1271 45.3114 20.2151L41.5509 26.7283C38.6753 25.4158 35.4457 24.685 31.9996 24.685C28.5536 24.685 25.3243 25.4169 22.4487 26.7283L18.6886 20.2151C18.638 20.1271 18.5705 20.0499 18.49 19.988C18.4095 19.9261 18.3176 19.8807 18.2195 19.8544C18.1214 19.828 18.0191 19.8212 17.9185 19.8344C17.8178 19.8477 17.7207 19.8806 17.6327 19.9313C17.5448 19.9821 17.4677 20.0497 17.4059 20.1303C17.3441 20.2108 17.2988 20.3028 17.2726 20.4009C17.2463 20.499 17.2397 20.6013 17.253 20.702C17.2664 20.8026 17.2994 20.8997 17.3503 20.9876L21.0642 27.4205C14.6872 30.889 10.3255 37.3447 9.6875 44.9721H54.3125C53.6738 37.3447 49.3124 30.889 42.9358 27.4205Z" fill="#3DDC84"/>
</g>
<defs>
<clipPath id="clip0_112_5948">
<rect width="64" height="64" fill="white" transform="translate(0 0.400024)"/>
</clipPath>
</defs>
</svg>
