<svg width="64" height="65" viewBox="0 0 64 65" fill="none" xmlns="http://www.w3.org/2000/svg">
<g clip-path="url(#clip0_112_5978)">
<path d="M22.75 64.9C28.7 64.9 33.5 60.1 33.5 54.15V43.4H22.75C16.8 43.4 12 48.2 12 54.15C12 60.1 16.8 64.9 22.75 64.9Z" fill="#0ACF83"/>
<path d="M12 32.65C12 26.7 16.8 21.9 22.75 21.9H33.5V43.4H22.75C16.8 43.4 12 38.6 12 32.65Z" fill="#A259FF"/>
<path d="M12 11.15C12 5.20002 16.8 0.400024 22.75 0.400024H33.5V21.9H22.75C16.8 21.9 12 17.1 12 11.15Z" fill="#F24E1E"/>
<path d="M33.5 0.400024H44.25C50.2 0.400024 55 5.20002 55 11.15C55 17.1 50.2 21.9 44.25 21.9H33.5V0.400024Z" fill="#FF7262"/>
<path d="M55 32.65C55 38.6 50.2 43.4 44.25 43.4C38.3 43.4 33.5 38.6 33.5 32.65C33.5 26.7 38.3 21.9 44.25 21.9C50.2 21.9 55 26.7 55 32.65Z" fill="#1ABCFE"/>
</g>
<defs>
<clipPath id="clip0_112_5978">
<rect width="64" height="64" fill="white" transform="translate(0 0.400024)"/>
</clipPath>
</defs>
</svg>
