<svg width="64" height="65" viewBox="0 0 64 65" fill="none" xmlns="http://www.w3.org/2000/svg">
<g clip-path="url(#clip0_112_5936)">
<path d="M4.82943 27.6827C4.7041 27.6827 4.67477 27.6214 4.7361 27.5254L5.3921 26.6854C5.45343 26.592 5.6081 26.5307 5.73343 26.5307H16.8588C16.9814 26.5307 17.0134 26.624 16.9521 26.7174L16.4214 27.5254C16.3601 27.6214 16.2028 27.712 16.1094 27.712L4.82943 27.6827ZM0.125433 30.5494C9.94603e-05 30.5494 -0.0319005 30.488 0.0320995 30.3947L0.685433 29.552C0.746766 29.4587 0.904099 29.3974 1.02943 29.3974H15.2374C15.3628 29.3974 15.4241 29.4907 15.3921 29.584L15.1441 30.3307C15.1121 30.456 14.9894 30.5174 14.8641 30.5174L0.125433 30.5494ZM7.66677 33.416C7.54143 33.416 7.50943 33.3227 7.57343 33.2294L8.0081 32.4507C8.06943 32.3574 8.19477 32.264 8.3201 32.264H14.5521C14.6774 32.264 14.7388 32.3574 14.7388 32.4827L14.6774 33.2294C14.6774 33.3547 14.5521 33.448 14.4588 33.448L7.66677 33.416ZM40.0108 27.1227C38.0481 27.6214 36.7068 27.9947 34.7761 28.4934C34.3068 28.616 34.2774 28.648 33.8694 28.1814C33.4054 27.6507 33.0614 27.3094 32.4081 26.9974C30.4428 26.032 28.5414 26.312 26.7681 27.464C24.6481 28.8347 23.5574 30.8614 23.5894 33.384C23.6188 35.8774 25.3334 37.9334 27.7948 38.2774C29.9148 38.5574 31.6881 37.8107 33.0934 36.224C33.3734 35.8774 33.6214 35.504 33.9334 35.0667H27.9201C27.2668 35.0667 27.1094 34.6614 27.3281 34.1334C27.7334 33.168 28.4801 31.5467 28.9174 30.736C28.9856 30.5869 29.0953 30.4605 29.2334 30.3721C29.3715 30.2837 29.5321 30.2369 29.6961 30.2374H41.0374C40.9761 31.08 40.9761 31.92 40.8508 32.7627C40.5261 34.9806 39.6474 37.0809 38.2961 38.8694C36.0534 41.8294 33.1228 43.6694 29.4161 44.1654C26.3628 44.5707 23.5254 43.9787 21.0348 42.112C18.7281 40.3654 17.4188 38.0587 17.0774 35.192C16.6721 31.7947 17.6694 28.7414 19.7254 26.0614C21.9388 23.1654 24.8668 21.3254 28.4508 20.6747C31.3788 20.1414 34.1841 20.488 36.7068 22.1974C38.3601 23.2907 39.5414 24.784 40.3228 26.592C40.5094 26.872 40.3841 27.0294 40.0108 27.1254M50.3254 44.3547C47.4881 44.2907 44.9014 43.48 42.7201 41.6107C40.9064 40.0805 39.7104 37.9435 39.3548 35.5974C38.7948 32.0774 39.7601 28.96 41.8801 26.1867C44.1548 23.1947 46.8961 21.6374 50.6054 20.9867C53.7841 20.4267 56.7761 20.7334 59.4854 22.5734C61.9468 24.2534 63.4748 26.5307 63.8801 29.52C64.4081 33.728 63.1948 37.1547 60.2961 40.0854C58.2401 42.1734 55.7148 43.48 52.8161 44.072C51.9761 44.232 51.1361 44.2587 50.3254 44.3547ZM57.7388 31.768C57.7094 31.36 57.7094 31.048 57.6481 30.736C57.0881 27.6507 54.2508 25.9094 51.2908 26.592C48.3921 27.2454 46.5228 29.0854 45.8374 32.0134C45.2774 34.4454 46.4614 36.9067 48.7041 37.9067C50.4188 38.6534 52.1308 38.5574 53.7841 37.72C56.2454 36.44 57.5841 34.4454 57.7414 31.7654L57.7388 31.768Z" fill="#00ACD7"/>
</g>
<defs>
<clipPath id="clip0_112_5936">
<rect width="64" height="64" fill="white" transform="translate(0 0.400024)"/>
</clipPath>
</defs>
</svg>
