<svg width="24" height="25" viewBox="0 0 24 25" fill="none" xmlns="http://www.w3.org/2000/svg">
<path d="M6.51734 17.8132C6.91177 18.3905 8.10883 19.6228 9.74168 19.9333L6.51734 17.8132ZM9.86428 22.7C8.83582 22.5306 2 20.3057 2 12.7926C2 5.7633 8.0019 2.70001 12.0008 2.70001C15.9996 2.70001 22 5.7633 22 12.7926C22 20.3057 15.1642 22.5306 14.1357 22.7C14.1357 22.7 13.9267 19.2826 14.0487 18.6969C14.1706 18.1113 13.7552 17.1688 13.7552 17.1688C14.7262 16.8055 16.2043 16.2847 16.7001 14.8874C17.0848 13.8032 17.3268 12.2288 16.2508 10.7489C16.2508 10.7489 16.5318 8.3581 15.9996 8.26549C15.4675 8.17288 13.8998 9.21193 13.8998 9.21193C13.4432 9.08249 12.4243 8.83477 12.0018 8.8794C11.5792 8.83477 10.5568 9.08249 10.1002 9.21193C10.1002 9.21193 8.53249 8.17288 8.00036 8.26549C7.46823 8.3581 7.74917 10.7489 7.74917 10.7489C6.67316 12.2288 6.91516 13.8032 7.2999 14.8874C7.79575 16.2847 9.27384 16.8055 10.2448 17.1688C10.2448 17.1688 9.82944 18.1113 9.95135 18.6969C10.0733 19.2826 9.86428 22.7 9.86428 22.7Z" fill="#1A1A1A"/>
<path d="M6.51734 17.8132C6.91177 18.3905 8.10883 19.6228 9.74168 19.9333M9.86428 22.7C8.83582 22.5306 2 20.3057 2 12.7926C2 5.7633 8.0019 2.70001 12.0008 2.70001C15.9996 2.70001 22 5.7633 22 12.7926C22 20.3057 15.1642 22.5306 14.1357 22.7C14.1357 22.7 13.9267 19.2826 14.0487 18.6969C14.1706 18.1113 13.7552 17.1688 13.7552 17.1688C14.7262 16.8055 16.2043 16.2847 16.7001 14.8874C17.0848 13.8032 17.3268 12.2288 16.2508 10.7489C16.2508 10.7489 16.5318 8.3581 15.9996 8.26549C15.4675 8.17288 13.8998 9.21193 13.8998 9.21193C13.4432 9.08249 12.4243 8.83477 12.0018 8.8794C11.5792 8.83477 10.5568 9.08249 10.1002 9.21193C10.1002 9.21193 8.53249 8.17288 8.00036 8.26549C7.46823 8.3581 7.74917 10.7489 7.74917 10.7489C6.67316 12.2288 6.91516 13.8032 7.2999 14.8874C7.79575 16.2847 9.27384 16.8055 10.2448 17.1688C10.2448 17.1688 9.82944 18.1113 9.95135 18.6969C10.0733 19.2826 9.86428 22.7 9.86428 22.7Z" stroke="white" stroke-linecap="round" stroke-linejoin="round"/>
</svg>
