<svg width="64" height="65" viewBox="0 0 64 65" fill="none" xmlns="http://www.w3.org/2000/svg">
<path d="M32 38.1C35.1481 38.1 37.7001 35.548 37.7001 32.4C37.7001 29.252 35.1481 26.7 32 26.7C28.852 26.7 26.3 29.252 26.3 32.4C26.3 35.548 28.852 38.1 32 38.1Z" fill="#61DAFB"/>
<path d="M53.65 23C52.55 22.6 51.4 22.2 50.2 21.85C50.5 20.65 50.75 19.45 50.95 18.3C52 11.7 50.85 7.05001 47.65 5.25001C46.7 4.70001 45.65 4.45001 44.45 4.45001C40.95 4.45001 36.5 7.05001 32 11.4C27.5 7.05001 23.0499 4.45001 19.5499 4.45001C18.3499 4.45001 17.3 4.70001 16.35 5.25001C13.15 7.10001 12 11.75 13.05 18.3C13.25 19.45 13.5 20.65 13.8 21.85C12.6 22.2 11.45 22.55 10.35 23C4.09995 25.4 0.699951 28.7 0.699951 32.4C0.699951 36.1 4.14995 39.4 10.35 41.8C11.45 42.2 12.6 42.6 13.8 42.95C13.5 44.15 13.25 45.35 13.05 46.5C12 53.1 13.15 57.75 16.35 59.55C17.3 60.1 18.3499 60.35 19.5499 60.35C23.0999 60.35 27.5499 57.75 32 53.4C36.5 57.75 40.95 60.35 44.45 60.35C45.65 60.35 46.7 60.1 47.65 59.55C50.85 57.7 52 53.05 50.95 46.5C50.75 45.35 50.5 44.15 50.2 42.95C51.4 42.6 52.55 42.25 53.65 41.8C59.9 39.4 63.2999 36.1 63.2999 32.4C63.2999 28.7 59.9 25.4 53.65 23ZM46.25 7.75001C48.2999 8.95001 49 12.65 48.15 17.9C48 18.95 47.75 20.05 47.45 21.2C44.85 20.6 42.1 20.2 39.2 19.95C37.5 17.55 35.75 15.4 34 13.45C37.7 9.80001 41.45 7.30001 44.5 7.30001C45.15 7.30001 45.75 7.45001 46.25 7.75001ZM40.65 37.4C39.75 39 38.6999 40.6 37.5999 42.2C35.75 42.35 33.9 42.4 32 42.4C30.0499 42.4 28.1999 42.35 26.4 42.2C25.2999 40.6 24.2999 39 23.4 37.4C22.4499 35.75 21.5499 34.05 20.75 32.4C21.5499 30.75 22.4499 29.05 23.4 27.4C24.2999 25.8 25.35 24.2 26.45 22.6C28.3 22.45 30.15 22.4 32.0499 22.4C34 22.4 35.85 22.45 37.65 22.6C38.75 24.2 39.75 25.8 40.65 27.4C41.6 29.05 42.5 30.75 43.2999 32.4C42.45 34.05 41.6 35.7 40.65 37.4ZM44.7999 35.75C45.5499 37.5 46.15 39.2 46.7 40.9C45 41.3 43.2 41.6 41.2999 41.85C41.8999 40.9 42.5499 39.9 43.0999 38.85C43.6999 37.8 44.25 36.75 44.7999 35.75ZM32 49.3C30.7999 48 29.65 46.6 28.5499 45.15C29.6999 45.2 30.85 45.25 32 45.25C33.15 45.25 34.2999 45.2 35.45 45.15C34.35 46.6 33.2 48 32 49.3ZM22.7 41.8C20.8 41.55 19 41.25 17.2999 40.85C17.8499 39.2 18.45 37.45 19.2 35.7C19.75 36.7 20.2999 37.75 20.9 38.75C21.5 39.85 22.1 40.8 22.7 41.8ZM19.2 29.05C18.45 27.3 17.8499 25.6 17.2999 23.9C19 23.5 20.8 23.2 22.7 22.95C22.1 23.9 21.4499 24.9 20.9 25.95C20.2999 27 19.75 28.05 19.2 29.05ZM32 15.5C33.2 16.8 34.35 18.2 35.45 19.65C34.2999 19.6 33.15 19.55 32 19.55C30.85 19.55 29.6999 19.6 28.5499 19.65C29.65 18.2 30.7999 16.8 32 15.5ZM43.0999 26L41.2999 23C43.2 23.25 45 23.55 46.7 23.95C46.15 25.6 45.5499 27.35 44.7999 29.1C44.25 28.05 43.6999 27 43.0999 26ZM15.85 17.9C15 12.65 15.7 8.95001 17.75 7.75001C18.25 7.45001 18.85 7.30001 19.5 7.30001C22.5 7.30001 26.25 9.75001 30 13.45C28.25 15.35 26.5 17.55 24.7999 19.95C21.9 20.2 19.15 20.65 16.55 21.2C16.25 20.05 16.05 18.95 15.85 17.9ZM3.49995 32.4C3.49995 30.05 6.34995 27.55 11.35 25.7C12.35 25.3 13.45 24.95 14.55 24.65C15.35 27.15 16.3499 29.8 17.5499 32.45C16.3499 35.1 15.3 37.7 14.55 40.2C7.64995 38.2 3.49995 35.2 3.49995 32.4ZM17.75 57.05C15.7 55.85 15 52.15 15.85 46.9C16 45.85 16.25 44.75 16.55 43.6C19.15 44.2 21.9 44.6 24.7999 44.85C26.5 47.25 28.25 49.4 30 51.35C26.2999 55 22.5499 57.5 19.5 57.5C18.85 57.5 18.25 57.35 17.75 57.05ZM48.15 46.9C49 52.15 48.2999 55.85 46.25 57.05C45.75 57.35 45.15 57.5 44.5 57.5C41.5 57.5 37.75 55.05 34 51.35C35.75 49.45 37.5 47.25 39.2 44.85C42.1 44.6 44.85 44.15 47.45 43.6C47.75 44.75 47.95 45.85 48.15 46.9ZM52.65 39.1C51.65 39.5 50.5499 39.85 49.45 40.15C48.65 37.65 47.65 35 46.45 32.35C47.65 29.7 48.7 27.1 49.45 24.6C56.35 26.6 60.5 29.6 60.5 32.4C60.5 34.75 57.6 37.25 52.65 39.1Z" fill="#61DAFB"/>
</svg>
